<?xml version="1.0" standalone="no"?>
<!DOCTYPE svg PUBLIC "-//W3C//DTD SVG 20010904//EN"
 "http://www.w3.org/TR/2001/REC-SVG-20010904/DTD/svg10.dtd">
<svg version="1.0" xmlns="http://www.w3.org/2000/svg"
 width="388.000000pt" height="388.000000pt" viewBox="0 0 388.000000 388.000000"
 preserveAspectRatio="xMidYMid meet">
<metadata>
Created by potrace 1.14, written by Peter Selinger 2001-2017
</metadata>
<g transform="translate(0.000000,388.000000) scale(0.100000,-0.100000)"
fill="#000000" stroke="none">
<path d="M1789 3876 c-2 -2 -34 -6 -70 -10 -276 -26 -604 -145 -849 -308 -310
-207 -584 -534 -710 -848 -12 -30 -26 -64 -30 -75 -32 -76 -69 -199 -84 -275
-2 -14 -9 -48 -15 -77 -20 -101 -26 -180 -26 -338 1 -145 9 -286 20 -318 2 -6
6 -28 9 -47 9 -60 53 -221 86 -310 67 -183 195 -408 320 -560 60 -73 206 -220
264 -265 21 -16 44 -35 51 -41 6 -7 56 -42 111 -78 239 -161 555 -278 844
-313 128 -16 451 -8 545 12 20 5 52 11 109 21 64 12 236 68 326 106 140 59
271 132 366 202 23 17 52 38 64 46 38 26 101 82 185 165 252 248 424 550 520
915 15 57 30 144 44 255 10 73 7 394 -4 455 -68 400 -191 688 -413 964 -60 75
-204 223 -263 271 -300 244 -592 372 -999 440 -39 7 -395 16 -401 11z"/>
</g>
</svg>
