<svg xmlns="http://www.w3.org/2000/svg" version="1.1" xmlns:xlink="http://www.w3.org/1999/xlink" xmlns:svgjs="http://svgjs.dev/svgjs" viewBox="0 0 1920 1080"><rect width="1920" height="1080" fill="#693de1"></rect><g transform="matrix(0.8131727983645296,0.8131727983645295,-0.8131727983645295,0.8131727983645296,611.6330800544872,-650.0124417153374)"><path d="M0,-1080C-11.673159147689347,-986.216400448746,-87.64681520389311,-651.3439744131739,-70.03895488613608,-517.2984026924755C-52.43109456837905,-383.25283097177714,93.72373098817012,-424.43643856234814,105.64716190654218,-275.7265696758095C117.57059282491424,-127.01670078927091,5.183213454846083,213.38164394328527,1.501630624096265,374.960810626756C-2.179952206653553,536.5399773102267,90.37845913417804,564.002617863426,83.55766492204327,693.7484304250147C76.7368707099085,823.4942429866034,-13.587572237132424,1006.5046473636842,-39.423134648712335,1153.4356859962882C-65.25869706029225,1300.3667246288921,-78.02623198888824,1407.5739432200203,-71.45570954743619,1575.3346622206388C-64.88518710598413,1743.0953812212574,-11.909284924572697,2062.555777036773,0,2160L 1920 2160 L 1920 -1080 Z" fill="url(&quot;#SvgjsLinearGradient1048&quot;)"></path><path d="M320,-1080C335.7164155910407,-974.7572245134949,396.250904612845,-683.5376222295035,414.298493546244,-448.54334708096917C432.34608247964303,-213.5490719324348,448.66361872936005,108.46974320130593,428.2855336003942,329.9656508912063C407.9074484714284,551.4615585811066,324.8654042207998,687.4021591632825,292.02998277244893,880.4320990584329C259.19456132409806,1073.4620389535833,226.6113353723637,1274.883973438514,231.27300491028888,1488.1452902621086C235.93467444821405,1701.4066070857032,305.21216748504816,2048.0242150436848,320,2160L 1920 2160 L 1920 -1080 Z" fill="url(&quot;#SvgjsLinearGradient1049&quot;)"></path><path d="M640,-1080C644.1594895339427,-1003.7904404318236,672.7009928898752,-774.7922950150852,664.9569372036567,-622.7426425909421C657.2128815174382,-470.69299016679895,590.6575143454187,-308.194194017262,593.5356658826887,-167.70208545514117C596.4138174199587,-27.209976893020354,668.4320309986812,81.92852006991396,682.2258464272769,220.2100087817829C696.0196618558726,358.4914974936519,702.054147297567,500.4382118532492,676.298558454263,661.9868468160724C650.542969610959,823.5354817788957,552.0899465306004,1022.4106561313552,527.6923133674525,1189.5018185587223C503.2946802043046,1356.5929809860895,511.1948117032844,1502.784124473396,529.9127594753757,1664.5338213802756C548.630707247467,1826.2835182871552,621.6521265792293,2077.4223035633795,640,2160L 1920 2160 L 1920 -1080 Z" fill="url(&quot;#SvgjsLinearGradient1050&quot;)"></path><path d="M960,-1080C980.1213451309935,-993.1936646952768,1080.2518384416908,-758.3568078833282,1080.7280707859613,-559.1619881716603C1081.204303130232,-359.9671684599923,984.6518907686614,-77.95534049764149,962.8573940656229,115.1689182700078C941.0628973625844,308.2931770376571,952.943427727319,429.8967847561313,949.9610905677307,599.5835644342355C946.9787534081424,769.2703441123398,955.1953760455765,964.7665467038347,944.9633711080934,1133.2895963386331C934.7313661706103,1301.8126459734317,886.0629561275143,1439.6034616327986,888.569060942832,1610.7218622430264C891.0751657581498,1781.8402628532542,948.094843490472,2068.453643707171,960,2160L 1920 2160 L 1920 -1080 Z" fill="url(&quot;#SvgjsLinearGradient1051&quot;)"></path><path d="M1280,-1080C1265.4006160904335,-1003.3786802490848,1174.8178126198309,-747.0845767638864,1192.4036965426008,-620.2720814945092C1209.9895804653706,-493.45958622513194,1356.4854923581768,-460.1523254768987,1385.51530353662,-319.1250283837368C1414.5451147150632,-178.09773129057484,1376.8536604745427,98.28011732197587,1366.5825636132604,225.89170106446238C1356.311466751978,353.5032848069489,1322.123585839282,324.3756607716307,1323.8887223689255,446.5444740711823C1325.653858898569,568.713287370734,1392.438521636653,793.3312436089702,1377.173382791122,958.904580861772C1361.9082439455913,1124.4779181145739,1239.839659435054,1324.4208978801123,1232.2978892957408,1439.9844975879935C1224.7561191564275,1555.5480972958746,1323.972410171199,1532.2835953737242,1331.9227619552423,1652.2861791090586C1339.8731137392856,1772.288762844393,1288.6537936592072,2075.38102985151,1280,2160L 1920 2160 L 1920 -1080 Z" fill="url(&quot;#SvgjsLinearGradient1052&quot;)"></path><path d="M1600,-1080C1603.5397580051579,-1016.1236884416253,1626.4764743991327,-852.3377501298494,1621.2385480309476,-696.7421306497517C1616.0006216627626,-541.1465111696541,1575.0842175334637,-315.0039002323225,1568.57244179089,-146.42628311941382C1562.0606660483163,22.151333993494887,1579.20786229335,160.9556973020395,1582.1678935755058,314.72357202770047C1585.1279248576616,468.4914467533614,1588.7399520538397,606.3303208051843,1586.3326294838241,776.1809652345519C1583.9253069138085,946.0316096639194,1574.5575948554576,1172.7711473833006,1567.723958155413,1333.8274386039059C1560.8903214553682,1494.8837298245112,1539.9514689761245,1604.823285658834,1545.3308092835557,1742.518712558183C1550.710149590987,1880.2141394575322,1590.888468213926,2090.419785426364,1600,2160L 1920 2160 L 1920 -1080 Z" fill="url(&quot;#SvgjsLinearGradient1053&quot;)"></path></g><defs><linearGradient x1="0.1" y1="0" x2="0" y2="1" id="SvgjsLinearGradient1048"><stop stop-color="#693de1" offset="0"></stop><stop stop-color="#4e3de1" offset="0"></stop></linearGradient><linearGradient x1="0.1" y1="0" x2="0" y2="1" id="SvgjsLinearGradient1049"><stop stop-color="#5422dd" offset="0"></stop><stop stop-color="#3522dd" offset="0.16666666666666666"></stop></linearGradient><linearGradient x1="0.1" y1="0" x2="0" y2="1" id="SvgjsLinearGradient1050"><stop stop-color="#4a1ec2" offset="0"></stop><stop stop-color="#2f1ec2" offset="0.3333333333333333"></stop></linearGradient><linearGradient x1="0.1" y1="0" x2="0" y2="1" id="SvgjsLinearGradient1051"><stop stop-color="#401aa7" offset="0"></stop><stop stop-color="#291aa7" offset="0.5"></stop></linearGradient><linearGradient x1="0.1" y1="0" x2="0" y2="1" id="SvgjsLinearGradient1052"><stop stop-color="#36168c" offset="0"></stop><stop stop-color="#22168c" offset="0.6666666666666666"></stop></linearGradient><linearGradient x1="0.1" y1="0" x2="0" y2="1" id="SvgjsLinearGradient1053"><stop stop-color="#2b1272" offset="0"></stop><stop stop-color="#1b1272" offset="0.8333333333333334"></stop></linearGradient></defs></svg>